<svg xmlns = "http://www.w3.org/2000/svg" width = "1000" height = "1000">
<g>
<polygon points = "458.053, 162.877 460.081, 151.439 460.092, 151.271 446.637, 97.201 376.454, 144.564 380.187, 162.918 "
fill = "none" stroke = "black"/>
</g>
<g>
<polygon points = "858.151, 228.193 850.758, 188.428 803.435, 171.088 803.036, 223.615 830.760, 236.361 "
fill = "none" stroke = "black"/>
</g>
<g>
<polygon points = "196.305, 37.062 189.552, 52.660 253.539, 107.767 260.370, 48.034 222.634, 39.082 "
fill = "none" stroke = "black"/>
</g>
<g>
<polygon points = "741.517, 659.210 774.297, 693.097 807.772, 690.645 798.495, 642.677 788.456, 641.429 746.667, 649.770 "
fill = "none" stroke = "black"/>
</g>
<g>
<polygon points = "549.178, 673.242 534.825, 723.020 564.875, 761.457 565.034, 761.332 589.685, 678.435 571.464, 666.360 "
fill = "none" stroke = "black"/>
</g>
<g>
<polygon points = "615.433, 563.865 669.266, 495.752 644.660, 468.546 642.872, 469.188 601.094, 508.836 609.813, 562.403 "
fill = "none" stroke = "black"/>
</g>
<g>
<polygon points = "510.963, 567.101 447.149, 604.493 450.449, 615.615 468.061, 644.078 505.053, 616.416 512.178, 567.468 "
fill = "none" stroke = "black"/>
</g>
<g>
<polygon points = "837.213, 27.607 839.733, 33.808 862.558, 56.435 930.298, 55.860 937.850, 40.839 842.189, 0.000 834.110, 0.000 "
fill = "none" stroke = "black"/>
</g>
<g>
<polygon points = "705.879, 325.194 688.097, 354.230 687.140, 356.226 696.616, 397.172 718.807, 389.724 718.304, 379.459 713.152, 321.110 "
fill = "none" stroke = "black"/>
</g>
<g>
<polygon points = "551.766, 859.772 606.158, 901.688 638.494, 863.140 561.890, 843.180 554.366, 842.450 "
fill = "none" stroke = "black"/>
</g>
<g>
<polygon points = "301.715, 960.183 248.062, 958.630 198.381, 994.062 195.894, 1000.000 302.744, 1000.000 "
fill = "none" stroke = "black"/>
</g>
<g>
<polygon points = "798.883, 833.672 783.986, 866.439 846.170, 923.068 855.881, 908.594 852.783, 885.755 "
fill = "none" stroke = "black"/>
</g>
<g>
<polygon points = "380.217, 901.932 386.839, 904.024 431.190, 861.642 422.544, 836.821 408.893, 821.425 369.371, 878.109 "
fill = "none" stroke = "black"/>
</g>
<g>
<polygon points = "68.087, 803.607 36.413, 857.183 50.980, 876.893 62.975, 882.724 143.219, 830.675 "
fill = "none" stroke = "black"/>
</g>
<g>
<polygon points = "222.634, 39.082 260.370, 48.034 270.116, 43.963 289.300, 11.635 290.666, 0.000 225.634, 0.000 "
fill = "none" stroke = "black"/>
</g>
<g>
<polygon points = "810.947, 494.460 823.014, 515.462 833.403, 519.382 899.158, 506.263 846.313, 472.468 835.878, 469.968 "
fill = "none" stroke = "black"/>
</g>
<g>
<polygon points = "325.420, 382.997 306.441, 423.844 330.061, 448.683 341.123, 449.155 353.522, 402.724 348.907, 392.930 "
fill = "none" stroke = "black"/>
</g>
<g>
<polygon points = "506.196, 375.418 551.887, 373.021 544.730, 318.430 542.312, 313.963 541.031, 313.073 489.820, 360.268 "
fill = "none" stroke = "black"/>
</g>
<g>
<polygon points = "995.115, 479.708 924.962, 485.078 915.512, 493.636 914.192, 498.588 948.203, 529.313 955.374, 534.561 "
fill = "none" stroke = "black"/>
</g>
<g>
<polygon points = "824.741, 732.336 829.931, 715.154 823.420, 703.818 807.772, 690.645 774.297, 693.097 766.075, 714.751 773.031, 742.516 "
fill = "none" stroke = "black"/>
</g>
<g>
<polygon points = "737.347, 490.600 767.934, 499.824 792.933, 483.605 788.999, 436.422 786.812, 434.418 751.984, 445.137 "
fill = "none" stroke = "black"/>
</g>
<g>
<polygon points = "855.750, 614.545 926.347, 636.284 936.302, 630.956 915.337, 597.716 904.607, 588.866 870.664, 598.616 "
fill = "none" stroke = "black"/>
</g>
<g>
<polygon points = "381.770, 711.848 393.822, 693.807 383.075, 682.751 323.982, 675.459 322.174, 676.905 314.344, 709.364 348.869, 732.782 "
fill = "none" stroke = "black"/>
</g>
<g>
<polygon points = "915.095, 182.808 869.448, 171.447 881.404, 224.160 954.772, 220.096 956.217, 219.813 "
fill = "none" stroke = "black"/>
</g>
<g>
<polygon points = "991.960, 907.030 905.609, 892.978 936.390, 947.012 1000.000, 973.884 1000.000, 911.289 "
fill = "none" stroke = "black"/>
</g>
<g>
<polygon points = "100.832, 516.477 125.973, 484.259 124.051, 474.730 65.079, 460.203 64.261, 467.020 "
fill = "none" stroke = "black"/>
</g>
<g>
<polygon points = "636.259, 817.609 640.899, 862.288 648.719, 863.773 653.787, 863.073 674.297, 856.563 702.335, 806.749 "
fill = "none" stroke = "black"/>
</g>
<g>
<polygon points = "393.368, 68.727 340.504, 70.451 332.613, 74.664 314.518, 121.286 353.085, 133.012 362.080, 135.505 "
fill = "none" stroke = "black"/>
</g>
<g>
<polygon points = "40.695, 906.263 50.674, 879.942 50.980, 876.893 36.413, 857.183 25.734, 850.740 0.000, 847.007 0.000, 913.978 "
fill = "none" stroke = "black"/>
</g>
<g>
<polygon points = "62.684, 545.450 43.658, 550.725 67.155, 611.388 81.941, 629.569 101.080, 625.318 108.728, 616.913 "
fill = "none" stroke = "black"/>
</g>
<g>
<polygon points = "971.541, 741.817 982.337, 833.975 1000.000, 835.077 1000.000, 751.126 "
fill = "none" stroke = "black"/>
</g>
<g>
<polygon points = "838.917, 46.894 818.584, 105.580 869.010, 140.228 "
fill = "none" stroke = "black"/>
</g>
<g>
<polygon points = "469.722, 700.766 521.775, 768.896 551.611, 777.282 564.875, 761.457 534.825, 723.020 473.001, 693.687 "
fill = "none" stroke = "black"/>
</g>
<g>
<polygon points = "747.858, 575.414 741.003, 573.701 731.278, 600.983 746.667, 649.770 788.456, 641.429 "
fill = "none" stroke = "black"/>
</g>
<g>
<polygon points = "689.150, 503.276 690.712, 494.796 683.601, 459.934 681.672, 457.928 645.675, 467.368 644.660, 468.546 669.266, 495.752 "
fill = "none" stroke = "black"/>
</g>
<g>
<polygon points = "20.597, 513.143 55.151, 498.156 64.261, 467.020 65.079, 460.203 64.751, 441.196 50.387, 443.109 36.844, 457.171 "
fill = "none" stroke = "black"/>
</g>
<g>
<polygon points = "977.244, 569.427 955.374, 534.561 948.203, 529.313 935.784, 580.122 "
fill = "none" stroke = "black"/>
</g>
<g>
<polygon points = "692.134, 31.495 681.887, 33.897 698.781, 95.692 700.942, 97.806 715.228, 97.795 753.016, 65.659 "
fill = "none" stroke = "black"/>
</g>
<g>
<polygon points = "726.737, 716.850 718.330, 746.468 732.468, 776.146 754.787, 769.532 773.031, 742.516 766.075, 714.751 "
fill = "none" stroke = "black"/>
</g>
<g>
<polygon points = "386.394, 396.968 388.506, 393.552 387.875, 348.929 377.838, 342.352 363.325, 348.766 348.907, 392.930 353.522, 402.724 "
fill = "none" stroke = "black"/>
</g>
<g>
<polygon points = "146.245, 279.954 127.144, 292.907 127.482, 340.189 175.213, 332.253 192.535, 325.647 196.525, 321.330 198.980, 316.049 "
fill = "none" stroke = "black"/>
</g>
<g>
<polygon points = "905.271, 506.172 868.379, 554.928 870.664, 598.616 904.607, 588.866 905.634, 506.037 "
fill = "none" stroke = "black"/>
</g>
<g>
<polygon points = "289.850, 127.009 292.569, 171.194 353.085, 133.012 314.518, 121.286 "
fill = "none" stroke = "black"/>
</g>
<g>
<polygon points = "923.988, 822.216 921.867, 805.253 886.261, 760.409 849.107, 779.250 847.019, 807.560 870.462, 830.412 880.828, 831.981 "
fill = "none" stroke = "black"/>
</g>
<g>
<polygon points = "695.878, 674.783 706.885, 670.647 707.039, 670.475 687.872, 618.149 667.300, 609.114 630.486, 632.423 "
fill = "none" stroke = "black"/>
</g>
<g>
<polygon points = "527.864, 31.086 556.678, 21.243 587.146, 0.000 526.177, 0.000 "
fill = "none" stroke = "black"/>
</g>
<g>
<polygon points = "875.424, 354.417 839.151, 280.932 827.048, 287.055 809.819, 316.425 "
fill = "none" stroke = "black"/>
</g>
<g>
<polygon points = "935.784, 580.122 948.203, 529.313 914.192, 498.588 905.634, 506.037 904.607, 588.866 915.337, 597.716 "
fill = "none" stroke = "black"/>
</g>
<g>
<polygon points = "812.776, 628.016 841.709, 627.940 848.623, 624.274 854.712, 614.898 817.836, 581.979 795.545, 580.241 "
fill = "none" stroke = "black"/>
</g>
<g>
<polygon points = "868.272, 271.452 901.772, 334.891 942.827, 327.379 953.739, 305.113 "
fill = "none" stroke = "black"/>
</g>
<g>
<polygon points = "215.506, 488.118 180.155, 496.128 178.699, 513.400 186.377, 573.209 186.733, 574.668 209.237, 568.142 "
fill = "none" stroke = "black"/>
</g>
<g>
<polygon points = "962.084, 72.878 962.728, 72.006 959.856, 37.695 937.850, 40.839 930.298, 55.860 "
fill = "none" stroke = "black"/>
</g>
<g>
<polygon points = "901.039, 886.834 915.752, 872.944 880.828, 831.981 870.462, 830.412 852.783, 885.755 855.881, 908.594 "
fill = "none" stroke = "black"/>
</g>
<g>
<polygon points = "421.626, 385.164 433.197, 317.009 418.903, 314.036 387.875, 348.929 388.506, 393.552 "
fill = "none" stroke = "black"/>
</g>
<g>
<polygon points = "302.406, 361.034 278.414, 357.090 268.068, 364.431 294.248, 418.565 306.441, 423.844 325.420, 382.997 "
fill = "none" stroke = "black"/>
</g>
<g>
<polygon points = "271.457, 190.357 290.015, 224.951 322.906, 234.296 359.516, 220.442 292.729, 181.680 "
fill = "none" stroke = "black"/>
</g>
<g>
<polygon points = "235.109, 583.326 224.088, 567.879 209.237, 568.142 186.733, 574.668 179.099, 593.858 232.506, 613.558 "
fill = "none" stroke = "black"/>
</g>
<g>
<polygon points = "268.672, 834.343 310.163, 761.950 298.166, 751.434 238.030, 770.630 257.650, 833.310 "
fill = "none" stroke = "black"/>
</g>
<g>
<polygon points = "409.787, 504.649 402.313, 439.744 383.346, 417.883 357.498, 454.434 387.947, 495.555 "
fill = "none" stroke = "black"/>
</g>
<g>
<polygon points = "928.306, 867.226 970.915, 836.824 923.988, 822.216 880.828, 831.981 915.752, 872.944 "
fill = "none" stroke = "black"/>
</g>
<g>
<polygon points = "67.852, 888.410 106.637, 920.345 151.031, 879.907 153.102, 842.283 143.424, 830.653 143.219, 830.675 62.975, 882.724 "
fill = "none" stroke = "black"/>
</g>
<g>
<polygon points = "692.328, 513.865 762.268, 525.321 767.934, 499.824 737.347, 490.600 690.712, 494.796 689.150, 503.276 "
fill = "none" stroke = "black"/>
</g>
<g>
<polygon points = "961.284, 30.525 1000.000, 13.747 1000.000, 0.000 911.690, 0.000 "
fill = "none" stroke = "black"/>
</g>
<g>
<polygon points = "412.768, 266.302 404.242, 268.198 381.349, 329.635 377.838, 342.352 387.875, 348.929 418.903, 314.036 "
fill = "none" stroke = "black"/>
</g>
<g>
<polygon points = "430.482, 243.612 431.200, 237.902 372.470, 223.357 387.637, 255.447 404.242, 268.198 412.768, 266.302 "
fill = "none" stroke = "black"/>
</g>
<g>
<polygon points = "275.722, 721.633 260.062, 680.201 247.164, 680.512 168.805, 743.508 219.426, 752.332 "
fill = "none" stroke = "black"/>
</g>
<g>
<polygon points = "219.556, 440.243 269.007, 444.477 269.862, 424.880 224.714, 398.056 211.165, 402.657 209.831, 411.741 "
fill = "none" stroke = "black"/>
</g>
<g>
<polygon points = "711.757, 855.548 756.978, 922.645 778.790, 872.949 731.852, 821.159 "
fill = "none" stroke = "black"/>
</g>
<g>
<polygon points = "756.980, 922.707 808.642, 948.905 840.483, 933.857 846.170, 923.068 783.986, 866.439 778.790, 872.949 756.978, 922.645 "
fill = "none" stroke = "black"/>
</g>
<g>
<polygon points = "737.745, 799.169 731.852, 821.159 778.790, 872.949 783.986, 866.439 798.883, 833.672 798.910, 816.318 "
fill = "none" stroke = "black"/>
</g>
<g>
<polygon points = "928.306, 867.226 915.752, 872.944 901.039, 886.834 905.609, 892.978 991.960, 907.030 "
fill = "none" stroke = "black"/>
</g>
<g>
<polygon points = "497.513, 959.952 574.189, 950.927 568.456, 915.335 564.049, 910.828 473.680, 942.169 473.707, 942.740 "
fill = "none" stroke = "black"/>
</g>
<g>
<polygon points = "232.349, 769.389 217.997, 775.661 208.295, 863.589 242.211, 872.153 257.650, 833.310 238.030, 770.630 "
fill = "none" stroke = "black"/>
</g>
<g>
<polygon points = "692.143, 192.826 691.492, 201.536 735.787, 239.149 756.203, 199.891 756.334, 199.514 737.181, 174.864 697.436, 183.143 "
fill = "none" stroke = "black"/>
</g>
<g>
<polygon points = "979.092, 374.532 977.137, 288.963 953.739, 305.113 942.827, 327.379 945.038, 369.297 946.244, 371.307 "
fill = "none" stroke = "black"/>
</g>
<g>
<polygon points = "743.066, 385.494 803.646, 368.050 807.328, 347.209 803.839, 325.754 801.953, 323.726 717.937, 314.827 713.152, 321.110 718.304, 379.459 "
fill = "none" stroke = "black"/>
</g>
<g>
<polygon points = "141.615, 974.275 177.594, 954.437 151.031, 879.907 106.637, 920.345 "
fill = "none" stroke = "black"/>
</g>
<g>
<polygon points = "55.151, 498.156 69.311, 540.851 88.553, 540.841 100.832, 516.477 64.261, 467.020 "
fill = "none" stroke = "black"/>
</g>
<g>
<polygon points = "183.161, 954.377 198.381, 994.062 248.062, 958.630 235.643, 924.205 210.109, 913.906 "
fill = "none" stroke = "black"/>
</g>
<g>
<polygon points = "791.107, 545.120 794.395, 579.568 795.545, 580.241 817.836, 581.979 836.287, 557.030 833.403, 519.382 823.014, 515.462 "
fill = "none" stroke = "black"/>
</g>
<g>
<polygon points = "714.049, 446.665 751.984, 445.137 786.812, 434.418 786.777, 429.402 727.630, 397.618 "
fill = "none" stroke = "black"/>
</g>
<g>
<polygon points = "198.381, 994.062 183.161, 954.377 177.594, 954.437 141.615, 974.275 133.696, 1000.000 195.894, 1000.000 "
fill = "none" stroke = "black"/>
</g>
<g>
<polygon points = "145.281, 13.861 196.305, 37.062 222.634, 39.082 225.634, 0.000 136.263, 0.000 "
fill = "none" stroke = "black"/>
</g>
<g>
<polygon points = "134.008, 161.720 149.164, 134.338 105.565, 73.530 79.017, 99.391 79.589, 126.899 "
fill = "none" stroke = "black"/>
</g>
<g>
<polygon points = "60.964, 43.942 61.885, 44.669 69.034, 45.694 100.461, 27.883 121.356, 0.000 49.268, 0.000 "
fill = "none" stroke = "black"/>
</g>
<g>
<polygon points = "39.056, 212.607 56.192, 143.567 14.470, 132.992 0.000, 140.915 0.000, 185.174 "
fill = "none" stroke = "black"/>
</g>
<g>
<polygon points = "843.063, 971.633 838.690, 1000.000 1000.000, 1000.000 1000.000, 991.543 "
fill = "none" stroke = "black"/>
</g>
<g>
<polygon points = "173.726, 425.201 209.831, 411.741 211.165, 402.657 205.938, 395.495 162.652, 379.182 147.439, 381.133 "
fill = "none" stroke = "black"/>
</g>
<g>
<polygon points = "341.764, 843.455 369.371, 878.109 408.893, 821.425 404.057, 812.781 357.048, 800.786 "
fill = "none" stroke = "black"/>
</g>
<g>
<polygon points = "794.757, 60.218 807.591, 108.717 818.584, 105.580 838.917, 46.894 839.733, 33.808 837.213, 27.607 "
fill = "none" stroke = "black"/>
</g>
<g>
<polygon points = "569.597, 656.222 582.407, 614.586 552.522, 581.281 513.770, 567.469 512.178, 567.468 505.053, 616.416 "
fill = "none" stroke = "black"/>
</g>
<g>
<polygon points = "482.569, 516.155 457.620, 401.076 425.493, 458.700 477.790, 521.775 "
fill = "none" stroke = "black"/>
</g>
<g>
<polygon points = "114.256, 350.762 117.875, 352.201 127.482, 340.189 127.144, 292.907 122.446, 288.296 98.716, 278.143 "
fill = "none" stroke = "black"/>
</g>
<g>
<polygon points = "737.347, 490.600 751.984, 445.137 714.049, 446.665 683.601, 459.934 690.712, 494.796 "
fill = "none" stroke = "black"/>
</g>
<g>
<polygon points = "968.218, 665.465 956.947, 698.617 959.104, 725.497 971.128, 741.436 971.541, 741.817 1000.000, 751.126 1000.000, 668.968 "
fill = "none" stroke = "black"/>
</g>
<g>
<polygon points = "854.544, 411.015 893.591, 440.918 897.583, 443.275 913.722, 415.797 885.135, 391.167 872.140, 394.492 854.466, 409.466 "
fill = "none" stroke = "black"/>
</g>
<g>
<polygon points = "616.000, 256.944 657.813, 234.860 625.341, 205.501 569.565, 234.438 "
fill = "none" stroke = "black"/>
</g>
<g>
<polygon points = "808.642, 948.905 756.980, 922.707 745.345, 931.125 741.230, 940.202 776.794, 1000.000 798.539, 1000.000 "
fill = "none" stroke = "black"/>
</g>
<g>
<polygon points = "986.275, 180.028 958.010, 156.842 945.144, 152.244 882.136, 143.024 875.283, 147.634 868.035, 164.713 867.893, 168.963 869.448, 171.447 915.095, 182.808 "
fill = "none" stroke = "black"/>
</g>
<g>
<polygon points = "807.591, 108.717 795.389, 138.978 868.035, 164.713 875.283, 147.634 869.010, 140.228 818.584, 105.580 "
fill = "none" stroke = "black"/>
</g>
<g>
<polygon points = "710.192, 12.566 791.232, 40.523 820.484, 0.000 712.654, 0.000 "
fill = "none" stroke = "black"/>
</g>
<g>
<polygon points = "962.728, 72.006 962.084, 72.878 960.460, 75.633 970.727, 103.949 1000.000, 129.027 1000.000, 45.781 "
fill = "none" stroke = "black"/>
</g>
<g>
<polygon points = "534.462, 299.202 503.698, 280.315 467.986, 339.760 480.823, 359.586 489.820, 360.268 541.031, 313.073 "
fill = "none" stroke = "black"/>
</g>
<g>
<polygon points = "870.462, 830.412 847.019, 807.560 805.076, 807.683 798.910, 816.318 798.883, 833.672 852.783, 885.755 "
fill = "none" stroke = "black"/>
</g>
<g>
<polygon points = "63.420, 85.224 14.470, 132.992 56.192, 143.567 79.579, 126.912 79.589, 126.899 79.017, 99.391 "
fill = "none" stroke = "black"/>
</g>
<g>
<polygon points = "255.536, 364.896 229.304, 294.236 216.179, 297.993 198.980, 316.049 196.525, 321.330 245.880, 367.465 "
fill = "none" stroke = "black"/>
</g>
<g>
<polygon points = "205.938, 395.495 211.165, 402.657 224.714, 398.056 245.880, 367.465 196.525, 321.330 192.535, 325.647 "
fill = "none" stroke = "black"/>
</g>
<g>
<polygon points = "334.170, 263.359 309.011, 253.744 280.182, 264.270 321.418, 337.418 328.391, 337.954 "
fill = "none" stroke = "black"/>
</g>
<g>
<polygon points = "278.307, 656.836 257.010, 622.071 233.204, 614.258 196.321, 640.966 196.065, 641.620 195.796, 654.558 247.164, 680.512 260.062, 680.201 "
fill = "none" stroke = "black"/>
</g>
<g>
<polygon points = "648.663, 952.712 601.888, 933.085 616.068, 1000.000 639.142, 1000.000 "
fill = "none" stroke = "black"/>
</g>
<g>
<polygon points = "681.101, 754.609 628.224, 756.726 612.503, 763.535 618.179, 783.057 629.824, 800.632 631.418, 802.055 698.200, 770.709 "
fill = "none" stroke = "black"/>
</g>
<g>
<polygon points = "987.715, 425.756 927.345, 482.109 924.962, 485.078 995.115, 479.708 1000.000, 476.234 1000.000, 425.202 "
fill = "none" stroke = "black"/>
</g>
<g>
<polygon points = "475.396, 686.150 473.001, 693.687 534.825, 723.020 549.178, 673.242 "
fill = "none" stroke = "black"/>
</g>
<g>
<polygon points = "37.363, 241.971 98.716, 278.143 122.446, 288.296 101.808, 224.057 74.302, 218.416 48.383, 221.855 "
fill = "none" stroke = "black"/>
</g>
<g>
<polygon points = "592.336, 510.473 521.589, 553.834 513.770, 567.469 552.522, 581.281 609.813, 562.403 601.094, 508.836 "
fill = "none" stroke = "black"/>
</g>
<g>
<polygon points = "420.160, 15.675 425.249, 56.778 447.948, 87.800 481.601, 70.293 456.241, 0.000 425.798, 0.000 "
fill = "none" stroke = "black"/>
</g>
<g>
<polygon points = "835.996, 712.779 874.952, 662.921 848.623, 624.274 841.709, 627.940 823.420, 703.818 829.931, 715.154 "
fill = "none" stroke = "black"/>
</g>
<g>
<polygon points = "67.155, 611.388 43.658, 550.725 6.920, 528.796 0.000, 527.900 0.000, 617.550 "
fill = "none" stroke = "black"/>
</g>
<g>
<polygon points = "598.137, 677.828 613.616, 656.807 621.470, 633.553 610.552, 620.211 582.407, 614.586 569.597, 656.222 571.464, 666.360 589.685, 678.435 "
fill = "none" stroke = "black"/>
</g>
<g>
<polygon points = "259.717, 136.366 207.991, 191.104 219.935, 213.533 226.105, 215.639 253.675, 189.503 "
fill = "none" stroke = "black"/>
</g>
<g>
<polygon points = "482.824, 251.427 462.746, 257.888 438.855, 316.014 467.986, 339.760 503.698, 280.315 "
fill = "none" stroke = "black"/>
</g>
<g>
<polygon points = "320.427, 549.883 373.048, 563.550 374.135, 548.468 343.045, 482.464 313.171, 512.042 "
fill = "none" stroke = "black"/>
</g>
<g>
<polygon points = "216.179, 297.993 205.617, 271.951 160.267, 240.508 146.245, 279.954 198.980, 316.049 "
fill = "none" stroke = "black"/>
</g>
<g>
<polygon points = "7.354, 377.037 32.752, 381.726 73.342, 365.106 79.850, 339.668 67.672, 329.654 37.538, 333.317 "
fill = "none" stroke = "black"/>
</g>
<g>
<polygon points = "694.330, 529.305 653.432, 569.840 667.246, 595.950 729.235, 563.835 "
fill = "none" stroke = "black"/>
</g>
<g>
<polygon points = "634.759, 287.247 619.440, 298.055 617.588, 327.281 619.665, 330.686 643.891, 360.164 687.140, 356.226 688.097, 354.230 "
fill = "none" stroke = "black"/>
</g>
<g>
<polygon points = "108.165, 667.419 196.065, 641.620 196.321, 640.966 135.929, 608.120 115.345, 611.066 108.728, 616.913 101.080, 625.318 "
fill = "none" stroke = "black"/>
</g>
<g>
<polygon points = "662.616, 413.213 637.966, 372.219 626.100, 383.417 613.554, 422.976 638.716, 449.325 "
fill = "none" stroke = "black"/>
</g>
<g>
<polygon points = "338.722, 263.470 387.637, 255.447 372.470, 223.357 368.572, 220.732 359.516, 220.442 322.906, 234.296 309.011, 253.744 334.170, 263.359 "
fill = "none" stroke = "black"/>
</g>
<g>
<polygon points = "157.205, 225.499 160.267, 240.508 205.617, 271.951 229.109, 222.964 226.105, 215.639 219.935, 213.533 "
fill = "none" stroke = "black"/>
</g>
<g>
<polygon points = "635.807, 17.622 638.636, 31.881 687.673, 90.975 698.781, 95.692 681.887, 33.897 "
fill = "none" stroke = "black"/>
</g>
<g>
<polygon points = "249.368, 288.917 247.477, 286.604 229.304, 294.236 255.536, 364.896 268.068, 364.431 278.414, 357.090 "
fill = "none" stroke = "black"/>
</g>
<g>
<polygon points = "118.194, 416.597 116.456, 414.012 65.040, 440.856 64.751, 441.196 65.079, 460.203 124.051, 474.730 "
fill = "none" stroke = "black"/>
</g>
<g>
<polygon points = "824.862, 736.274 849.107, 779.250 886.261, 760.409 898.670, 733.966 888.550, 726.388 835.996, 712.779 829.931, 715.154 824.741, 732.336 "
fill = "none" stroke = "black"/>
</g>
<g>
<polygon points = "29.830, 249.123 67.672, 329.654 79.850, 339.668 114.256, 350.762 98.716, 278.143 37.363, 241.971 "
fill = "none" stroke = "black"/>
</g>
<g>
<polygon points = "306.683, 952.675 343.856, 959.823 373.590, 905.779 314.131, 908.333 301.141, 928.592 "
fill = "none" stroke = "black"/>
</g>
<g>
<polygon points = "638.716, 449.325 613.554, 422.976 564.689, 419.522 579.376, 455.315 642.872, 469.188 644.660, 468.546 645.675, 467.368 "
fill = "none" stroke = "black"/>
</g>
<g>
<polygon points = "315.106, 337.599 249.368, 288.917 278.414, 357.090 302.406, 361.034 "
fill = "none" stroke = "black"/>
</g>
<g>
<polygon points = "229.109, 222.964 244.330, 243.692 290.015, 224.951 271.457, 190.357 253.675, 189.503 226.105, 215.639 "
fill = "none" stroke = "black"/>
</g>
<g>
<polygon points = "128.421, 723.919 142.190, 732.548 195.796, 654.558 196.065, 641.620 108.165, 667.419 107.922, 681.123 "
fill = "none" stroke = "black"/>
</g>
<g>
<polygon points = "0.000, 60.694 60.964, 43.942 49.268, 0.000 0.000, 0.000 "
fill = "none" stroke = "black"/>
</g>
<g>
<polygon points = "362.080, 135.505 353.085, 133.012 292.569, 171.194 292.729, 181.680 359.516, 220.442 368.572, 220.732 380.550, 171.881 380.187, 162.918 376.454, 144.564 "
fill = "none" stroke = "black"/>
</g>
<g>
<polygon points = "445.390, 819.487 454.379, 775.832 435.897, 745.361 425.440, 750.645 404.057, 812.781 408.893, 821.425 422.544, 836.821 "
fill = "none" stroke = "black"/>
</g>
<g>
<polygon points = "937.850, 40.839 959.856, 37.695 961.284, 30.525 911.690, 0.000 842.189, 0.000 "
fill = "none" stroke = "black"/>
</g>
<g>
<polygon points = "660.684, 236.410 684.869, 277.560 730.648, 289.429 733.697, 287.628 733.686, 287.577 680.386, 225.096 "
fill = "none" stroke = "black"/>
</g>
<g>
<polygon points = "723.213, 931.100 745.345, 931.125 756.980, 922.707 756.978, 922.645 711.757, 855.548 674.297, 856.563 653.787, 863.073 "
fill = "none" stroke = "black"/>
</g>
<g>
<polygon points = "812.776, 628.016 795.545, 580.241 794.395, 579.568 747.858, 575.414 788.456, 641.429 798.495, 642.677 "
fill = "none" stroke = "black"/>
</g>
<g>
<polygon points = "933.248, 90.501 960.460, 75.633 962.084, 72.878 930.298, 55.860 862.558, 56.435 897.952, 101.243 "
fill = "none" stroke = "black"/>
</g>
<g>
<polygon points = "253.597, 114.120 248.570, 115.600 190.284, 159.215 186.438, 185.162 207.991, 191.104 259.717, 136.366 263.598, 126.727 "
fill = "none" stroke = "black"/>
</g>
<g>
<polygon points = "545.042, 183.182 531.113, 194.980 504.605, 235.642 535.120, 245.477 562.616, 239.649 569.358, 234.472 547.859, 185.709 "
fill = "none" stroke = "black"/>
</g>
<g>
<polygon points = "959.104, 725.497 956.947, 698.617 917.305, 659.776 888.550, 726.388 898.670, 733.966 "
fill = "none" stroke = "black"/>
</g>
<g>
<polygon points = "838.917, 46.894 869.010, 140.228 875.283, 147.634 882.136, 143.024 897.952, 101.243 862.558, 56.435 839.733, 33.808 "
fill = "none" stroke = "black"/>
</g>
<g>
<polygon points = "528.243, 496.808 513.387, 501.966 521.589, 553.834 592.336, 510.473 "
fill = "none" stroke = "black"/>
</g>
<g>
<polygon points = "271.347, 909.583 275.158, 910.996 300.275, 846.760 268.672, 834.343 257.650, 833.310 242.211, 872.153 "
fill = "none" stroke = "black"/>
</g>
<g>
<polygon points = "500.448, 122.680 495.960, 65.875 481.601, 70.293 447.948, 87.800 446.637, 97.201 460.092, 151.271 "
fill = "none" stroke = "black"/>
</g>
<g>
<polygon points = "836.287, 557.030 868.379, 554.928 905.271, 506.172 899.158, 506.263 833.403, 519.382 "
fill = "none" stroke = "black"/>
</g>
<g>
<polygon points = "284.351, 462.038 269.339, 472.786 313.171, 512.042 343.045, 482.464 342.974, 450.479 341.123, 449.155 330.061, 448.683 "
fill = "none" stroke = "black"/>
</g>
<g>
<polygon points = "711.757, 855.548 731.852, 821.159 737.745, 799.169 729.568, 781.178 725.753, 781.208 702.335, 806.749 674.297, 856.563 "
fill = "none" stroke = "black"/>
</g>
<g>
<polygon points = "148.023, 219.888 101.808, 224.057 122.446, 288.296 127.144, 292.907 146.245, 279.954 160.267, 240.508 157.205, 225.499 "
fill = "none" stroke = "black"/>
</g>
<g>
<polygon points = "480.823, 359.586 456.011, 388.529 456.948, 390.625 506.545, 433.645 515.146, 420.474 506.196, 375.418 489.820, 360.268 "
fill = "none" stroke = "black"/>
</g>
<g>
<polygon points = "767.277, 138.681 767.258, 138.673 694.393, 147.305 691.580, 152.130 697.436, 183.143 737.181, 174.864 "
fill = "none" stroke = "black"/>
</g>
<g>
<polygon points = "207.359, 863.690 208.295, 863.589 217.997, 775.661 157.883, 778.609 "
fill = "none" stroke = "black"/>
</g>
<g>
<polygon points = "88.553, 540.841 114.132, 576.259 119.543, 567.416 141.126, 497.382 131.510, 488.005 125.973, 484.259 100.832, 516.477 "
fill = "none" stroke = "black"/>
</g>
<g>
<polygon points = "329.130, 849.074 314.131, 908.333 373.590, 905.779 380.217, 901.932 369.371, 878.109 341.764, 843.455 "
fill = "none" stroke = "black"/>
</g>
<g>
<polygon points = "915.038, 655.007 917.305, 659.776 956.947, 698.617 968.218, 665.465 951.916, 631.352 936.302, 630.956 926.347, 636.284 "
fill = "none" stroke = "black"/>
</g>
<g>
<polygon points = "556.678, 21.243 608.545, 50.922 625.702, 48.515 638.636, 31.881 635.807, 17.622 619.794, 0.000 587.146, 0.000 "
fill = "none" stroke = "black"/>
</g>
<g>
<polygon points = "867.893, 168.963 868.035, 164.713 795.389, 138.978 791.392, 142.259 800.853, 168.978 803.435, 171.088 850.758, 188.428 "
fill = "none" stroke = "black"/>
</g>
<g>
<polygon points = "395.764, 518.457 387.947, 495.555 357.498, 454.434 342.974, 450.479 343.045, 482.464 374.135, 548.468 "
fill = "none" stroke = "black"/>
</g>
<g>
<polygon points = "628.606, 573.622 610.552, 620.211 621.470, 633.553 630.486, 632.423 667.300, 609.114 667.246, 595.950 653.432, 569.840 "
fill = "none" stroke = "black"/>
</g>
<g>
<polygon points = "294.248, 418.565 268.068, 364.431 255.536, 364.896 245.880, 367.465 224.714, 398.056 269.862, 424.880 "
fill = "none" stroke = "black"/>
</g>
<g>
<polygon points = "25.734, 850.740 36.413, 857.183 68.087, 803.607 59.484, 761.066 53.032, 756.648 29.923, 749.814 "
fill = "none" stroke = "black"/>
</g>
<g>
<polygon points = "600.495, 930.631 601.888, 933.085 648.663, 952.712 654.487, 947.646 648.719, 863.773 640.899, 862.288 638.494, 863.140 606.158, 901.688 "
fill = "none" stroke = "black"/>
</g>
<g>
<polygon points = "333.203, 641.806 282.154, 616.002 257.010, 622.071 278.307, 656.836 322.174, 676.905 323.982, 675.459 "
fill = "none" stroke = "black"/>
</g>
<g>
<polygon points = "43.228, 721.474 107.922, 681.123 108.165, 667.419 101.080, 625.318 81.941, 629.569 60.046, 653.211 "
fill = "none" stroke = "black"/>
</g>
<g>
<polygon points = "995.876, 592.020 977.244, 569.427 935.784, 580.122 915.337, 597.716 936.302, 630.956 951.916, 631.352 "
fill = "none" stroke = "black"/>
</g>
<g>
<polygon points = "294.248, 418.565 269.862, 424.880 269.007, 444.477 284.351, 462.038 330.061, 448.683 306.441, 423.844 "
fill = "none" stroke = "black"/>
</g>
<g>
<polygon points = "717.937, 314.827 801.953, 323.726 783.139, 290.567 780.141, 289.413 733.697, 287.628 730.648, 289.429 "
fill = "none" stroke = "black"/>
</g>
<g>
<polygon points = "144.319, 553.189 178.699, 513.400 180.155, 496.128 179.613, 495.222 141.126, 497.382 119.543, 567.416 "
fill = "none" stroke = "black"/>
</g>
<g>
<polygon points = "580.317, 110.301 583.114, 122.002 650.428, 131.584 650.505, 131.286 625.702, 48.515 608.545, 50.922 "
fill = "none" stroke = "black"/>
</g>
<g>
<polygon points = "244.650, 473.824 218.867, 454.288 188.182, 465.139 179.613, 495.222 180.155, 496.128 215.506, 488.118 "
fill = "none" stroke = "black"/>
</g>
<g>
<polygon points = "467.515, 542.336 477.790, 521.775 425.493, 458.700 402.313, 439.744 409.787, 504.649 "
fill = "none" stroke = "black"/>
</g>
<g>
<polygon points = "380.550, 171.881 452.083, 216.532 453.495, 215.481 458.053, 162.877 380.187, 162.918 "
fill = "none" stroke = "black"/>
</g>
<g>
<polygon points = "326.525, 773.823 340.465, 770.437 348.869, 732.782 314.344, 709.364 300.475, 724.036 298.166, 751.434 310.163, 761.950 "
fill = "none" stroke = "black"/>
</g>
<g>
<polygon points = "635.429, 286.525 682.927, 280.302 684.869, 277.560 660.684, 236.410 657.813, 234.860 616.000, 256.944 "
fill = "none" stroke = "black"/>
</g>
<g>
<polygon points = "289.300, 11.635 348.467, 28.182 420.160, 15.675 425.798, 0.000 290.666, 0.000 "
fill = "none" stroke = "black"/>
</g>
<g>
<polygon points = "159.595, 123.933 166.847, 94.922 165.006, 79.596 133.208, 38.797 121.311, 42.129 105.565, 73.530 149.164, 134.338 "
fill = "none" stroke = "black"/>
</g>
<g>
<polygon points = "60.046, 653.211 81.941, 629.569 67.155, 611.388 0.000, 617.550 0.000, 691.991 "
fill = "none" stroke = "black"/>
</g>
<g>
<polygon points = "800.853, 168.978 756.334, 199.514 756.203, 199.891 784.243, 272.684 803.036, 223.615 803.435, 171.088 "
fill = "none" stroke = "black"/>
</g>
<g>
<polygon points = "43.228, 721.474 24.540, 746.689 29.923, 749.814 53.032, 756.648 128.421, 723.919 107.922, 681.123 "
fill = "none" stroke = "black"/>
</g>
<g>
<polygon points = "694.393, 147.305 767.258, 138.673 715.228, 97.795 700.942, 97.806 "
fill = "none" stroke = "black"/>
</g>
<g>
<polygon points = "473.707, 942.740 473.680, 942.169 465.438, 919.818 451.040, 910.587 416.060, 923.877 403.297, 940.645 433.887, 977.197 "
fill = "none" stroke = "black"/>
</g>
<g>
<polygon points = "635.807, 17.622 681.887, 33.897 692.134, 31.495 710.192, 12.566 712.654, 0.000 619.794, 0.000 "
fill = "none" stroke = "black"/>
</g>
<g>
<polygon points = "520.187, 777.227 520.681, 772.571 440.402, 736.996 435.897, 745.361 454.379, 775.832 485.688, 794.138 "
fill = "none" stroke = "black"/>
</g>
<g>
<polygon points = "48.383, 221.855 74.302, 218.416 80.964, 213.929 79.579, 126.912 56.192, 143.567 39.056, 212.607 "
fill = "none" stroke = "black"/>
</g>
<g>
<polygon points = "364.590, 969.863 403.297, 940.645 416.060, 923.877 386.839, 904.024 380.217, 901.932 373.590, 905.779 343.856, 959.823 "
fill = "none" stroke = "black"/>
</g>
<g>
<polygon points = "601.183, 681.951 639.936, 706.213 678.700, 713.213 681.967, 694.391 613.616, 656.807 598.137, 677.828 "
fill = "none" stroke = "black"/>
</g>
<g>
<polygon points = "147.929, 200.387 135.133, 192.848 80.964, 213.929 74.302, 218.416 101.808, 224.057 148.023, 219.888 "
fill = "none" stroke = "black"/>
</g>
<g>
<polygon points = "50.674, 879.942 40.695, 906.263 58.533, 975.707 84.185, 1000.000 92.243, 1000.000 "
fill = "none" stroke = "black"/>
</g>
<g>
<polygon points = "794.395, 579.568 791.107, 545.120 764.452, 532.360 736.561, 568.443 741.003, 573.701 747.858, 575.414 "
fill = "none" stroke = "black"/>
</g>
<g>
<polygon points = "430.482, 243.612 412.768, 266.302 418.903, 314.036 433.197, 317.009 438.855, 316.014 462.746, 257.888 "
fill = "none" stroke = "black"/>
</g>
<g>
<polygon points = "600.495, 930.631 606.158, 901.688 551.766, 859.772 543.854, 877.701 564.049, 910.828 568.456, 915.335 "
fill = "none" stroke = "black"/>
</g>
<g>
<polygon points = "498.911, 502.344 501.559, 501.631 562.438, 417.906 560.332, 414.440 515.146, 420.474 506.545, 433.645 "
fill = "none" stroke = "black"/>
</g>
<g>
<polygon points = "342.974, 450.479 357.498, 454.434 383.346, 417.883 386.394, 396.968 353.522, 402.724 341.123, 449.155 "
fill = "none" stroke = "black"/>
</g>
<g>
<polygon points = "917.305, 659.776 915.038, 655.007 874.952, 662.921 835.996, 712.779 888.550, 726.388 "
fill = "none" stroke = "black"/>
</g>
<g>
<polygon points = "186.377, 573.209 178.699, 513.400 144.319, 553.189 "
fill = "none" stroke = "black"/>
</g>
<g>
<polygon points = "515.146, 420.474 560.332, 414.440 555.871, 380.270 551.887, 373.021 506.196, 375.418 "
fill = "none" stroke = "black"/>
</g>
<g>
<polygon points = "557.784, 380.027 555.871, 380.270 560.332, 414.440 562.438, 417.906 564.689, 419.522 613.554, 422.976 626.100, 383.417 "
fill = "none" stroke = "black"/>
</g>
<g>
<polygon points = "805.076, 807.683 847.019, 807.560 849.107, 779.250 824.862, 736.274 800.195, 789.674 "
fill = "none" stroke = "black"/>
</g>
<g>
<polygon points = "141.615, 974.275 106.637, 920.345 67.852, 888.410 119.463, 1000.000 133.696, 1000.000 "
fill = "none" stroke = "black"/>
</g>
<g>
<polygon points = "133.208, 38.797 165.006, 79.596 189.552, 52.660 196.305, 37.062 145.281, 13.861 "
fill = "none" stroke = "black"/>
</g>
<g>
<polygon points = "256.955, 486.310 258.160, 476.651 244.650, 473.824 215.506, 488.118 209.237, 568.142 224.088, 567.879 "
fill = "none" stroke = "black"/>
</g>
<g>
<polygon points = "273.736, 122.407 263.598, 126.727 259.717, 136.366 253.675, 189.503 271.457, 190.357 292.729, 181.680 292.569, 171.194 289.850, 127.009 "
fill = "none" stroke = "black"/>
</g>
<g>
<polygon points = "874.952, 662.921 915.038, 655.007 926.347, 636.284 855.750, 614.545 854.712, 614.898 848.623, 624.274 "
fill = "none" stroke = "black"/>
</g>
<g>
<polygon points = "841.709, 627.940 812.776, 628.016 798.495, 642.677 807.772, 690.645 823.420, 703.818 "
fill = "none" stroke = "black"/>
</g>
<g>
<polygon points = "3.574, 255.633 37.538, 333.317 67.672, 329.654 29.830, 249.123 "
fill = "none" stroke = "black"/>
</g>
<g>
<polygon points = "800.195, 789.674 824.862, 736.274 824.741, 732.336 773.031, 742.516 754.787, 769.532 "
fill = "none" stroke = "black"/>
</g>
<g>
<polygon points = "812.145, 390.707 854.466, 409.466 872.140, 394.492 807.328, 347.209 803.646, 368.050 "
fill = "none" stroke = "black"/>
</g>
<g>
<polygon points = "195.796, 654.558 142.190, 732.548 150.259, 743.243 168.805, 743.508 247.164, 680.512 "
fill = "none" stroke = "black"/>
</g>
<g>
<polygon points = "553.733, 813.065 551.802, 835.614 554.366, 842.450 561.890, 843.180 629.824, 800.632 618.179, 783.057 "
fill = "none" stroke = "black"/>
</g>
<g>
<polygon points = "654.487, 947.646 723.213, 931.100 653.787, 863.073 648.719, 863.773 "
fill = "none" stroke = "black"/>
</g>
<g>
<polygon points = "735.787, 239.149 691.492, 201.536 680.386, 225.096 733.686, 287.577 "
fill = "none" stroke = "black"/>
</g>
<g>
<polygon points = "425.440, 750.645 409.959, 748.795 350.053, 778.978 357.048, 800.786 404.057, 812.781 "
fill = "none" stroke = "black"/>
</g>
<g>
<polygon points = "410.883, 692.924 451.428, 709.019 469.722, 700.766 473.001, 693.687 475.396, 686.150 468.061, 644.078 450.449, 615.615 "
fill = "none" stroke = "black"/>
</g>
<g>
<polygon points = "381.770, 711.848 348.869, 732.782 340.465, 770.437 350.053, 778.978 409.959, 748.795 "
fill = "none" stroke = "black"/>
</g>
<g>
<polygon points = "188.182, 465.139 169.767, 445.250 131.510, 488.005 141.126, 497.382 179.613, 495.222 "
fill = "none" stroke = "black"/>
</g>
<g>
<polygon points = "36.844, 457.171 50.387, 443.109 0.000, 403.898 0.000, 461.602 "
fill = "none" stroke = "black"/>
</g>
<g>
<polygon points = "440.958, 563.142 440.307, 563.054 381.498, 576.328 373.758, 604.275 400.752, 620.823 445.571, 602.095 "
fill = "none" stroke = "black"/>
</g>
<g>
<polygon points = "707.039, 670.475 706.885, 670.647 726.737, 716.850 766.075, 714.751 774.297, 693.097 741.517, 659.210 "
fill = "none" stroke = "black"/>
</g>
<g>
<polygon points = "628.224, 756.726 681.101, 754.609 683.369, 721.647 678.700, 713.213 639.936, 706.213 "
fill = "none" stroke = "black"/>
</g>
<g>
<polygon points = "927.345, 482.109 931.477, 416.691 913.722, 415.797 897.583, 443.275 915.512, 493.636 924.962, 485.078 "
fill = "none" stroke = "black"/>
</g>
<g>
<polygon points = "783.139, 290.567 801.953, 323.726 803.839, 325.754 809.819, 316.425 827.048, 287.055 "
fill = "none" stroke = "black"/>
</g>
<g>
<polygon points = "315.106, 337.599 321.418, 337.418 280.182, 264.270 253.072, 271.225 247.477, 286.604 249.368, 288.917 "
fill = "none" stroke = "black"/>
</g>
<g>
<polygon points = "7.354, 377.037 37.538, 333.317 3.574, 255.633 0.000, 255.607 0.000, 380.002 "
fill = "none" stroke = "black"/>
</g>
<g>
<polygon points = "893.591, 440.918 854.544, 411.015 832.289, 427.920 835.878, 469.968 846.313, 472.468 "
fill = "none" stroke = "black"/>
</g>
<g>
<polygon points = "643.891, 360.164 637.966, 372.219 662.616, 413.213 691.455, 409.320 696.616, 397.172 687.140, 356.226 "
fill = "none" stroke = "black"/>
</g>
<g>
<polygon points = "467.437, 542.827 467.515, 542.336 409.787, 504.649 387.947, 495.555 395.764, 518.457 440.307, 563.054 440.958, 563.142 "
fill = "none" stroke = "black"/>
</g>
<g>
<polygon points = "731.278, 600.983 687.872, 618.149 707.039, 670.475 741.517, 659.210 746.667, 649.770 "
fill = "none" stroke = "black"/>
</g>
<g>
<polygon points = "630.174, 197.769 625.945, 201.390 625.341, 205.501 657.813, 234.860 660.684, 236.410 680.386, 225.096 691.492, 201.536 692.143, 192.826 "
fill = "none" stroke = "black"/>
</g>
<g>
<polygon points = "25.734, 850.740 29.923, 749.814 24.540, 746.689 0.000, 744.441 0.000, 847.007 "
fill = "none" stroke = "black"/>
</g>
<g>
<polygon points = "741.230, 940.202 745.345, 931.125 723.213, 931.100 654.487, 947.646 648.663, 952.712 639.142, 1000.000 654.738, 1000.000 "
fill = "none" stroke = "black"/>
</g>
<g>
<polygon points = "561.890, 843.180 638.494, 863.140 640.899, 862.288 636.259, 817.609 631.418, 802.055 629.824, 800.632 "
fill = "none" stroke = "black"/>
</g>
<g>
<polygon points = "562.616, 239.649 535.120, 245.477 534.462, 299.202 541.031, 313.073 542.312, 313.963 572.355, 277.895 "
fill = "none" stroke = "black"/>
</g>
<g>
<polygon points = "58.533, 975.707 0.000, 950.874 0.000, 1000.000 84.185, 1000.000 "
fill = "none" stroke = "black"/>
</g>
<g>
<polygon points = "278.307, 656.836 260.062, 680.201 275.722, 721.633 300.475, 724.036 314.344, 709.364 322.174, 676.905 "
fill = "none" stroke = "black"/>
</g>
<g>
<polygon points = "872.140, 394.492 885.135, 391.167 886.919, 386.484 887.196, 375.512 875.424, 354.417 809.819, 316.425 803.839, 325.754 807.328, 347.209 "
fill = "none" stroke = "black"/>
</g>
<g>
<polygon points = "323.357, 838.240 329.130, 849.074 341.764, 843.455 357.048, 800.786 350.053, 778.978 340.465, 770.437 326.525, 773.823 "
fill = "none" stroke = "black"/>
</g>
<g>
<polygon points = "887.196, 375.512 901.772, 334.891 868.272, 271.452 860.569, 264.619 839.151, 280.932 875.424, 354.417 "
fill = "none" stroke = "black"/>
</g>
<g>
<polygon points = "328.391, 337.954 321.418, 337.418 315.106, 337.599 302.406, 361.034 325.420, 382.997 348.907, 392.930 363.325, 348.766 "
fill = "none" stroke = "black"/>
</g>
<g>
<polygon points = "190.284, 159.215 248.570, 115.600 166.847, 94.922 159.595, 123.933 "
fill = "none" stroke = "black"/>
</g>
<g>
<polygon points = "540.578, 831.185 502.425, 853.520 495.027, 866.141 494.347, 868.510 530.125, 879.488 543.854, 877.701 551.766, 859.772 554.366, 842.450 551.802, 835.614 "
fill = "none" stroke = "black"/>
</g>
<g>
<polygon points = "655.717, 161.278 630.174, 197.769 692.143, 192.826 697.436, 183.143 691.580, 152.130 "
fill = "none" stroke = "black"/>
</g>
<g>
<polygon points = "165.006, 79.596 166.847, 94.922 248.570, 115.600 253.597, 114.120 253.539, 107.767 189.552, 52.660 "
fill = "none" stroke = "black"/>
</g>
<g>
<polygon points = "736.561, 568.443 729.235, 563.835 667.246, 595.950 667.300, 609.114 687.872, 618.149 731.278, 600.983 741.003, 573.701 "
fill = "none" stroke = "black"/>
</g>
<g>
<polygon points = "538.998, 157.019 539.866, 154.214 524.746, 36.970 495.960, 65.875 500.448, 122.680 "
fill = "none" stroke = "black"/>
</g>
<g>
<polygon points = "960.149, 219.483 956.217, 219.813 954.772, 220.096 936.269, 258.564 986.470, 278.219 997.086, 270.062 "
fill = "none" stroke = "black"/>
</g>
<g>
<polygon points = "970.915, 836.824 982.337, 833.975 971.541, 741.817 971.128, 741.436 921.867, 805.253 923.988, 822.216 "
fill = "none" stroke = "black"/>
</g>
<g>
<polygon points = "955.062, 413.726 931.477, 416.691 927.345, 482.109 987.715, 425.756 "
fill = "none" stroke = "black"/>
</g>
<g>
<polygon points = "521.589, 553.834 513.387, 501.966 501.559, 501.631 498.911, 502.344 482.569, 516.155 477.790, 521.775 467.515, 542.336 467.437, 542.827 510.963, 567.101 512.178, 567.468 513.770, 567.469 "
fill = "none" stroke = "black"/>
</g>
<g>
<polygon points = "791.232, 40.523 787.013, 53.907 794.757, 60.218 837.213, 27.607 834.110, 0.000 820.484, 0.000 "
fill = "none" stroke = "black"/>
</g>
<g>
<polygon points = "625.945, 201.390 618.573, 197.286 547.859, 185.709 569.358, 234.472 569.565, 234.438 625.341, 205.501 "
fill = "none" stroke = "black"/>
</g>
<g>
<polygon points = "997.086, 270.062 986.470, 278.219 977.137, 288.963 979.092, 374.532 1000.000, 408.574 1000.000, 269.175 "
fill = "none" stroke = "black"/>
</g>
<g>
<polygon points = "348.467, 28.182 289.300, 11.635 270.116, 43.963 274.478, 53.363 332.613, 74.664 340.504, 70.451 "
fill = "none" stroke = "black"/>
</g>
<g>
<polygon points = "580.393, 132.735 583.114, 122.002 580.317, 110.301 526.847, 33.548 524.746, 36.970 539.866, 154.214 "
fill = "none" stroke = "black"/>
</g>
<g>
<polygon points = "723.604, 391.578 743.066, 385.494 718.304, 379.459 718.807, 389.724 "
fill = "none" stroke = "black"/>
</g>
<g>
<polygon points = "784.243, 272.684 782.511, 282.948 830.760, 236.361 803.036, 223.615 "
fill = "none" stroke = "black"/>
</g>
<g>
<polygon points = "604.875, 759.678 601.183, 681.951 598.137, 677.828 589.685, 678.435 565.034, 761.332 "
fill = "none" stroke = "black"/>
</g>
<g>
<polygon points = "115.345, 611.066 135.929, 608.120 179.099, 593.858 186.733, 574.668 186.377, 573.209 144.319, 553.189 119.543, 567.416 114.132, 576.259 "
fill = "none" stroke = "black"/>
</g>
<g>
<polygon points = "864.844, 242.551 881.404, 224.160 869.448, 171.447 867.893, 168.963 850.758, 188.428 858.151, 228.193 "
fill = "none" stroke = "black"/>
</g>
<g>
<polygon points = "687.673, 90.975 650.505, 131.286 650.428, 131.584 655.717, 161.278 691.580, 152.130 694.393, 147.305 700.942, 97.806 698.781, 95.692 "
fill = "none" stroke = "black"/>
</g>
<g>
<polygon points = "552.522, 581.281 582.407, 614.586 610.552, 620.211 628.606, 573.622 615.433, 563.865 609.813, 562.403 "
fill = "none" stroke = "black"/>
</g>
<g>
<polygon points = "691.455, 409.320 662.616, 413.213 638.716, 449.325 645.675, 467.368 681.672, 457.928 "
fill = "none" stroke = "black"/>
</g>
<g>
<polygon points = "169.767, 445.250 163.615, 435.809 118.194, 416.597 124.051, 474.730 125.973, 484.259 131.510, 488.005 "
fill = "none" stroke = "black"/>
</g>
<g>
<polygon points = "50.387, 443.109 64.751, 441.196 65.040, 440.856 59.426, 426.904 32.752, 381.726 7.354, 377.037 0.000, 380.002 0.000, 403.898 "
fill = "none" stroke = "black"/>
</g>
<g>
<polygon points = "492.675, 236.717 482.824, 251.427 503.698, 280.315 534.462, 299.202 535.120, 245.477 504.605, 235.642 "
fill = "none" stroke = "black"/>
</g>
<g>
<polygon points = "531.113, 194.980 545.042, 183.182 538.998, 157.019 500.448, 122.680 460.092, 151.271 460.081, 151.439 "
fill = "none" stroke = "black"/>
</g>
<g>
<polygon points = "457.924, 893.727 451.040, 910.587 465.438, 919.818 530.125, 879.488 494.347, 868.510 "
fill = "none" stroke = "black"/>
</g>
<g>
<polygon points = "6.920, 528.796 43.658, 550.725 62.684, 545.450 69.311, 540.851 55.151, 498.156 20.597, 513.143 "
fill = "none" stroke = "black"/>
</g>
<g>
<polygon points = "452.083, 216.532 380.550, 171.881 368.572, 220.732 372.470, 223.357 431.200, 237.902 "
fill = "none" stroke = "black"/>
</g>
<g>
<polygon points = "456.011, 388.529 480.823, 359.586 467.986, 339.760 438.855, 316.014 433.197, 317.009 421.626, 385.164 "
fill = "none" stroke = "black"/>
</g>
<g>
<polygon points = "416.060, 923.877 451.040, 910.587 457.924, 893.727 431.190, 861.642 386.839, 904.024 "
fill = "none" stroke = "black"/>
</g>
<g>
<polygon points = "451.428, 709.019 410.883, 692.924 393.822, 693.807 381.770, 711.848 409.959, 748.795 425.440, 750.645 435.897, 745.361 440.402, 736.996 "
fill = "none" stroke = "black"/>
</g>
<g>
<polygon points = "741.230, 940.202 654.738, 1000.000 776.794, 1000.000 "
fill = "none" stroke = "black"/>
</g>
<g>
<polygon points = "832.289, 427.920 854.544, 411.015 854.466, 409.466 812.145, 390.707 786.777, 429.402 786.812, 434.418 788.999, 436.422 "
fill = "none" stroke = "black"/>
</g>
<g>
<polygon points = "456.948, 390.625 456.011, 388.529 421.626, 385.164 388.506, 393.552 386.394, 396.968 383.346, 417.883 402.313, 439.744 425.493, 458.700 457.620, 401.076 "
fill = "none" stroke = "black"/>
</g>
<g>
<polygon points = "995.115, 479.708 955.374, 534.561 977.244, 569.427 995.876, 592.020 1000.000, 591.925 1000.000, 476.234 "
fill = "none" stroke = "black"/>
</g>
<g>
<polygon points = "67.852, 888.410 62.975, 882.724 50.980, 876.893 50.674, 879.942 92.243, 1000.000 119.463, 1000.000 "
fill = "none" stroke = "black"/>
</g>
<g>
<polygon points = "557.784, 380.027 626.100, 383.417 637.966, 372.219 643.891, 360.164 619.665, 330.686 "
fill = "none" stroke = "black"/>
</g>
<g>
<polygon points = "219.426, 752.332 168.805, 743.508 150.259, 743.243 142.359, 773.902 157.883, 778.609 217.997, 775.661 232.349, 769.389 "
fill = "none" stroke = "black"/>
</g>
<g>
<polygon points = "931.477, 416.691 955.062, 413.726 946.244, 371.307 945.038, 369.297 886.919, 386.484 885.135, 391.167 913.722, 415.797 "
fill = "none" stroke = "black"/>
</g>
<g>
<polygon points = "453.495, 215.481 452.083, 216.532 431.200, 237.902 430.482, 243.612 462.746, 257.888 482.824, 251.427 492.675, 236.717 "
fill = "none" stroke = "black"/>
</g>
<g>
<polygon points = "836.287, 557.030 817.836, 581.979 854.712, 614.898 855.750, 614.545 870.664, 598.616 868.379, 554.928 "
fill = "none" stroke = "black"/>
</g>
<g>
<polygon points = "961.284, 30.525 959.856, 37.695 962.728, 72.006 1000.000, 45.781 1000.000, 13.747 "
fill = "none" stroke = "black"/>
</g>
<g>
<polygon points = "769.864, 62.576 768.510, 138.598 791.392, 142.259 795.389, 138.978 807.591, 108.717 794.757, 60.218 787.013, 53.907 "
fill = "none" stroke = "black"/>
</g>
<g>
<polygon points = "569.597, 656.222 505.053, 616.416 468.061, 644.078 475.396, 686.150 549.178, 673.242 571.464, 666.360 "
fill = "none" stroke = "black"/>
</g>
<g>
<polygon points = "451.428, 709.019 440.402, 736.996 520.681, 772.571 521.775, 768.896 469.722, 700.766 "
fill = "none" stroke = "black"/>
</g>
<g>
<polygon points = "481.601, 70.293 495.960, 65.875 524.746, 36.970 526.847, 33.548 527.864, 31.086 526.177, 0.000 456.241, 0.000 "
fill = "none" stroke = "black"/>
</g>
<g>
<polygon points = "970.727, 103.949 958.010, 156.842 986.275, 180.028 1000.000, 188.253 1000.000, 129.027 "
fill = "none" stroke = "black"/>
</g>
<g>
<polygon points = "495.027, 866.141 502.425, 853.520 485.688, 794.138 454.379, 775.832 445.390, 819.487 "
fill = "none" stroke = "black"/>
</g>
<g>
<polygon points = "782.511, 282.948 784.243, 272.684 756.203, 199.891 735.787, 239.149 733.686, 287.577 733.697, 287.628 780.141, 289.413 "
fill = "none" stroke = "black"/>
</g>
<g>
<polygon points = "253.597, 114.120 263.598, 126.727 273.736, 122.407 274.478, 53.363 270.116, 43.963 260.370, 48.034 253.539, 107.767 "
fill = "none" stroke = "black"/>
</g>
<g>
<polygon points = "960.149, 219.483 997.086, 270.062 1000.000, 269.175 1000.000, 191.823 "
fill = "none" stroke = "black"/>
</g>
<g>
<polygon points = "445.571, 602.095 400.752, 620.823 383.075, 682.751 393.822, 693.807 410.883, 692.924 450.449, 615.615 447.149, 604.493 "
fill = "none" stroke = "black"/>
</g>
<g>
<polygon points = "562.438, 417.906 501.559, 501.631 513.387, 501.966 528.243, 496.808 579.376, 455.315 564.689, 419.522 "
fill = "none" stroke = "black"/>
</g>
<g>
<polygon points = "162.652, 379.182 205.938, 395.495 192.535, 325.647 175.213, 332.253 "
fill = "none" stroke = "black"/>
</g>
<g>
<polygon points = "395.764, 518.457 374.135, 548.468 373.048, 563.550 380.542, 575.671 381.498, 576.328 440.307, 563.054 "
fill = "none" stroke = "black"/>
</g>
<g>
<polygon points = "887.196, 375.512 886.919, 386.484 945.038, 369.297 942.827, 327.379 901.772, 334.891 "
fill = "none" stroke = "black"/>
</g>
<g>
<polygon points = "551.611, 777.282 553.733, 813.065 618.179, 783.057 612.503, 763.535 604.875, 759.678 565.034, 761.332 564.875, 761.457 "
fill = "none" stroke = "black"/>
</g>
<g>
<polygon points = "135.133, 192.848 134.008, 161.720 79.589, 126.899 79.579, 126.912 80.964, 213.929 "
fill = "none" stroke = "black"/>
</g>
<g>
<polygon points = "135.929, 608.120 196.321, 640.966 233.204, 614.258 232.506, 613.558 179.099, 593.858 "
fill = "none" stroke = "black"/>
</g>
<g>
<polygon points = "555.871, 380.270 557.784, 380.027 619.665, 330.686 617.588, 327.281 544.730, 318.430 551.887, 373.021 "
fill = "none" stroke = "black"/>
</g>
<g>
<polygon points = "572.355, 277.895 542.312, 313.963 544.730, 318.430 617.588, 327.281 619.440, 298.055 "
fill = "none" stroke = "black"/>
</g>
<g>
<polygon points = "601.888, 933.085 600.495, 930.631 568.456, 915.335 574.189, 950.927 604.685, 1000.000 616.068, 1000.000 "
fill = "none" stroke = "black"/>
</g>
<g>
<polygon points = "269.007, 444.477 219.556, 440.243 218.867, 454.288 244.650, 473.824 258.160, 476.651 269.339, 472.786 284.351, 462.038 "
fill = "none" stroke = "black"/>
</g>
<g>
<polygon points = "364.590, 969.863 343.856, 959.823 306.683, 952.675 301.715, 960.183 302.744, 1000.000 370.003, 1000.000 "
fill = "none" stroke = "black"/>
</g>
<g>
<polygon points = "936.390, 947.012 845.557, 944.057 843.063, 971.633 1000.000, 991.543 1000.000, 973.884 "
fill = "none" stroke = "black"/>
</g>
<g>
<polygon points = "723.604, 391.578 727.630, 397.618 786.777, 429.402 812.145, 390.707 803.646, 368.050 743.066, 385.494 "
fill = "none" stroke = "black"/>
</g>
<g>
<polygon points = "933.248, 90.501 897.952, 101.243 882.136, 143.024 945.144, 152.244 "
fill = "none" stroke = "black"/>
</g>
<g>
<polygon points = "457.924, 893.727 494.347, 868.510 495.027, 866.141 445.390, 819.487 422.544, 836.821 431.190, 861.642 "
fill = "none" stroke = "black"/>
</g>
<g>
<polygon points = "762.268, 525.321 764.452, 532.360 791.107, 545.120 823.014, 515.462 810.947, 494.460 792.933, 483.605 767.934, 499.824 "
fill = "none" stroke = "black"/>
</g>
<g>
<polygon points = "979.092, 374.532 946.244, 371.307 955.062, 413.726 987.715, 425.756 1000.000, 425.202 1000.000, 408.574 "
fill = "none" stroke = "black"/>
</g>
<g>
<polygon points = "301.141, 928.592 314.131, 908.333 329.130, 849.074 323.357, 838.240 300.275, 846.760 275.158, 910.996 "
fill = "none" stroke = "black"/>
</g>
<g>
<polygon points = "447.948, 87.800 425.249, 56.778 393.368, 68.727 362.080, 135.505 376.454, 144.564 446.637, 97.201 "
fill = "none" stroke = "black"/>
</g>
<g>
<polygon points = "767.258, 138.673 767.277, 138.681 768.510, 138.598 769.864, 62.576 753.016, 65.659 715.228, 97.795 "
fill = "none" stroke = "black"/>
</g>
<g>
<polygon points = "287.511, 558.760 300.177, 560.307 320.427, 549.883 313.171, 512.042 269.339, 472.786 258.160, 476.651 256.955, 486.310 "
fill = "none" stroke = "black"/>
</g>
<g>
<polygon points = "100.461, 27.883 121.311, 42.129 133.208, 38.797 145.281, 13.861 136.263, 0.000 121.356, 0.000 "
fill = "none" stroke = "black"/>
</g>
<g>
<polygon points = "580.393, 132.735 618.573, 197.286 625.945, 201.390 630.174, 197.769 655.717, 161.278 650.428, 131.584 583.114, 122.002 "
fill = "none" stroke = "black"/>
</g>
<g>
<polygon points = "986.470, 278.219 936.269, 258.564 860.615, 264.504 860.569, 264.619 868.272, 271.452 953.739, 305.113 977.137, 288.963 "
fill = "none" stroke = "black"/>
</g>
<g>
<polygon points = "300.275, 846.760 323.357, 838.240 326.525, 773.823 310.163, 761.950 268.672, 834.343 "
fill = "none" stroke = "black"/>
</g>
<g>
<polygon points = "194.821, 871.299 207.359, 863.690 157.883, 778.609 142.359, 773.902 139.291, 776.564 143.424, 830.653 153.102, 842.283 "
fill = "none" stroke = "black"/>
</g>
<g>
<polygon points = "120.560, 376.047 147.439, 381.133 162.652, 379.182 175.213, 332.253 127.482, 340.189 117.875, 352.201 "
fill = "none" stroke = "black"/>
</g>
<g>
<polygon points = "271.347, 909.583 242.211, 872.153 208.295, 863.589 207.359, 863.690 194.821, 871.299 210.109, 913.906 235.643, 924.205 "
fill = "none" stroke = "black"/>
</g>
<g>
<polygon points = "0.000, 60.694 0.000, 122.284 61.885, 44.669 60.964, 43.942 "
fill = "none" stroke = "black"/>
</g>
<g>
<polygon points = "139.291, 776.564 59.484, 761.066 68.087, 803.607 143.219, 830.675 143.424, 830.653 "
fill = "none" stroke = "black"/>
</g>
<g>
<polygon points = "628.606, 573.622 653.432, 569.840 694.330, 529.305 692.328, 513.865 689.150, 503.276 669.266, 495.752 615.433, 563.865 "
fill = "none" stroke = "black"/>
</g>
<g>
<polygon points = "100.461, 27.883 69.034, 45.694 63.420, 85.224 79.017, 99.391 105.565, 73.530 121.311, 42.129 "
fill = "none" stroke = "black"/>
</g>
<g>
<polygon points = "79.850, 339.668 73.342, 365.106 83.018, 372.271 116.929, 389.160 120.560, 376.047 117.875, 352.201 114.256, 350.762 "
fill = "none" stroke = "black"/>
</g>
<g>
<polygon points = "467.437, 542.827 440.958, 563.142 445.571, 602.095 447.149, 604.493 510.963, 567.101 "
fill = "none" stroke = "black"/>
</g>
<g>
<polygon points = "285.430, 613.051 380.542, 575.671 373.048, 563.550 320.427, 549.883 300.177, 560.307 "
fill = "none" stroke = "black"/>
</g>
<g>
<polygon points = "971.128, 741.436 959.104, 725.497 898.670, 733.966 886.261, 760.409 921.867, 805.253 "
fill = "none" stroke = "black"/>
</g>
<g>
<polygon points = "163.615, 435.809 169.767, 445.250 188.182, 465.139 218.867, 454.288 219.556, 440.243 209.831, 411.741 173.726, 425.201 "
fill = "none" stroke = "black"/>
</g>
<g>
<polygon points = "433.887, 977.197 403.297, 940.645 364.590, 969.863 370.003, 1000.000 421.690, 1000.000 "
fill = "none" stroke = "black"/>
</g>
<g>
<polygon points = "800.853, 168.978 791.392, 142.259 768.510, 138.598 767.277, 138.681 737.181, 174.864 756.334, 199.514 "
fill = "none" stroke = "black"/>
</g>
<g>
<polygon points = "995.876, 592.020 951.916, 631.352 968.218, 665.465 1000.000, 668.968 1000.000, 591.925 "
fill = "none" stroke = "black"/>
</g>
<g>
<polygon points = "574.189, 950.927 497.513, 959.952 531.267, 1000.000 604.685, 1000.000 "
fill = "none" stroke = "black"/>
</g>
<g>
<polygon points = "636.259, 817.609 702.335, 806.749 725.753, 781.208 698.200, 770.709 631.418, 802.055 "
fill = "none" stroke = "black"/>
</g>
<g>
<polygon points = "338.722, 263.470 334.170, 263.359 328.391, 337.954 363.325, 348.766 377.838, 342.352 381.349, 329.635 "
fill = "none" stroke = "black"/>
</g>
<g>
<polygon points = "687.673, 90.975 638.636, 31.881 625.702, 48.515 650.505, 131.286 "
fill = "none" stroke = "black"/>
</g>
<g>
<polygon points = "24.540, 746.689 43.228, 721.474 60.046, 653.211 0.000, 691.991 0.000, 744.441 "
fill = "none" stroke = "black"/>
</g>
<g>
<polygon points = "782.511, 282.948 780.141, 289.413 783.139, 290.567 827.048, 287.055 839.151, 280.932 860.569, 264.619 860.615, 264.504 864.844, 242.551 858.151, 228.193 830.760, 236.361 "
fill = "none" stroke = "black"/>
</g>
<g>
<polygon points = "730.648, 289.429 684.869, 277.560 682.927, 280.302 705.879, 325.194 713.152, 321.110 717.937, 314.827 "
fill = "none" stroke = "black"/>
</g>
<g>
<polygon points = "274.478, 53.363 273.736, 122.407 289.850, 127.009 314.518, 121.286 332.613, 74.664 "
fill = "none" stroke = "black"/>
</g>
<g>
<polygon points = "244.330, 243.692 253.072, 271.225 280.182, 264.270 309.011, 253.744 322.906, 234.296 290.015, 224.951 "
fill = "none" stroke = "black"/>
</g>
<g>
<polygon points = "147.929, 200.387 148.023, 219.888 157.205, 225.499 219.935, 213.533 207.991, 191.104 186.438, 185.162 "
fill = "none" stroke = "black"/>
</g>
<g>
<polygon points = "59.426, 426.904 83.018, 372.271 73.342, 365.106 32.752, 381.726 "
fill = "none" stroke = "black"/>
</g>
<g>
<polygon points = "177.594, 954.437 183.161, 954.377 210.109, 913.906 194.821, 871.299 153.102, 842.283 151.031, 879.907 "
fill = "none" stroke = "black"/>
</g>
<g>
<polygon points = "53.032, 756.648 59.484, 761.066 139.291, 776.564 142.359, 773.902 150.259, 743.243 142.190, 732.548 128.421, 723.919 "
fill = "none" stroke = "black"/>
</g>
<g>
<polygon points = "59.426, 426.904 65.040, 440.856 116.456, 414.012 116.929, 389.160 83.018, 372.271 "
fill = "none" stroke = "black"/>
</g>
<g>
<polygon points = "970.727, 103.949 960.460, 75.633 933.248, 90.501 945.144, 152.244 958.010, 156.842 "
fill = "none" stroke = "black"/>
</g>
<g>
<polygon points = "845.557, 944.057 936.390, 947.012 905.609, 892.978 901.039, 886.834 855.881, 908.594 846.170, 923.068 840.483, 933.857 "
fill = "none" stroke = "black"/>
</g>
<g>
<polygon points = "287.511, 558.760 256.955, 486.310 224.088, 567.879 235.109, 583.326 "
fill = "none" stroke = "black"/>
</g>
<g>
<polygon points = "163.615, 435.809 173.726, 425.201 147.439, 381.133 120.560, 376.047 116.929, 389.160 116.456, 414.012 118.194, 416.597 "
fill = "none" stroke = "black"/>
</g>
<g>
<polygon points = "498.911, 502.344 506.545, 433.645 456.948, 390.625 457.620, 401.076 482.569, 516.155 "
fill = "none" stroke = "black"/>
</g>
<g>
<polygon points = "986.275, 180.028 915.095, 182.808 956.217, 219.813 960.149, 219.483 1000.000, 191.823 1000.000, 188.253 "
fill = "none" stroke = "black"/>
</g>
<g>
<polygon points = "579.376, 455.315 528.243, 496.808 592.336, 510.473 601.094, 508.836 642.872, 469.188 "
fill = "none" stroke = "black"/>
</g>
<g>
<polygon points = "253.072, 271.225 244.330, 243.692 229.109, 222.964 205.617, 271.951 216.179, 297.993 229.304, 294.236 247.477, 286.604 "
fill = "none" stroke = "black"/>
</g>
<g>
<polygon points = "604.875, 759.678 612.503, 763.535 628.224, 756.726 639.936, 706.213 601.183, 681.951 "
fill = "none" stroke = "black"/>
</g>
<g>
<polygon points = "6.920, 528.796 20.597, 513.143 36.844, 457.171 0.000, 461.602 0.000, 527.900 "
fill = "none" stroke = "black"/>
</g>
<g>
<polygon points = "348.467, 28.182 340.504, 70.451 393.368, 68.727 425.249, 56.778 420.160, 15.675 "
fill = "none" stroke = "black"/>
</g>
<g>
<polygon points = "540.578, 831.185 551.802, 835.614 553.733, 813.065 551.611, 777.282 521.775, 768.896 520.681, 772.571 520.187, 777.227 "
fill = "none" stroke = "black"/>
</g>
<g>
<polygon points = "373.758, 604.275 381.498, 576.328 380.542, 575.671 285.430, 613.051 282.154, 616.002 333.203, 641.806 "
fill = "none" stroke = "black"/>
</g>
<g>
<polygon points = "682.927, 280.302 635.429, 286.525 634.759, 287.247 688.097, 354.230 705.879, 325.194 "
fill = "none" stroke = "black"/>
</g>
<g>
<polygon points = "282.154, 616.002 285.430, 613.051 300.177, 560.307 287.511, 558.760 235.109, 583.326 232.506, 613.558 233.204, 614.258 257.010, 622.071 "
fill = "none" stroke = "black"/>
</g>
<g>
<polygon points = "387.637, 255.447 338.722, 263.470 381.349, 329.635 404.242, 268.198 "
fill = "none" stroke = "black"/>
</g>
<g>
<polygon points = "754.787, 769.532 732.468, 776.146 729.568, 781.178 737.745, 799.169 798.910, 816.318 805.076, 807.683 800.195, 789.674 "
fill = "none" stroke = "black"/>
</g>
<g>
<polygon points = "683.369, 721.647 681.101, 754.609 698.200, 770.709 725.753, 781.208 729.568, 781.178 732.468, 776.146 718.330, 746.468 "
fill = "none" stroke = "black"/>
</g>
<g>
<polygon points = "843.063, 971.633 845.557, 944.057 840.483, 933.857 808.642, 948.905 798.539, 1000.000 838.690, 1000.000 "
fill = "none" stroke = "black"/>
</g>
<g>
<polygon points = "618.573, 197.286 580.393, 132.735 539.866, 154.214 538.998, 157.019 545.042, 183.182 547.859, 185.709 "
fill = "none" stroke = "black"/>
</g>
<g>
<polygon points = "681.967, 694.391 695.878, 674.783 630.486, 632.423 621.470, 633.553 613.616, 656.807 "
fill = "none" stroke = "black"/>
</g>
<g>
<polygon points = "905.271, 506.172 905.634, 506.037 914.192, 498.588 915.512, 493.636 897.583, 443.275 893.591, 440.918 846.313, 472.468 899.158, 506.263 "
fill = "none" stroke = "black"/>
</g>
<g>
<polygon points = "300.475, 724.036 275.722, 721.633 219.426, 752.332 232.349, 769.389 238.030, 770.630 298.166, 751.434 "
fill = "none" stroke = "black"/>
</g>
<g>
<polygon points = "465.438, 919.818 473.680, 942.169 564.049, 910.828 543.854, 877.701 530.125, 879.488 "
fill = "none" stroke = "black"/>
</g>
<g>
<polygon points = "526.847, 33.548 580.317, 110.301 608.545, 50.922 556.678, 21.243 527.864, 31.086 "
fill = "none" stroke = "black"/>
</g>
<g>
<polygon points = "832.289, 427.920 788.999, 436.422 792.933, 483.605 810.947, 494.460 835.878, 469.968 "
fill = "none" stroke = "black"/>
</g>
<g>
<polygon points = "692.134, 31.495 753.016, 65.659 769.864, 62.576 787.013, 53.907 791.232, 40.523 710.192, 12.566 "
fill = "none" stroke = "black"/>
</g>
<g>
<polygon points = "400.752, 620.823 373.758, 604.275 333.203, 641.806 323.982, 675.459 383.075, 682.751 "
fill = "none" stroke = "black"/>
</g>
<g>
<polygon points = "58.533, 975.707 40.695, 906.263 0.000, 913.978 0.000, 950.874 "
fill = "none" stroke = "black"/>
</g>
<g>
<polygon points = "497.513, 959.952 473.707, 942.740 433.887, 977.197 421.690, 1000.000 531.267, 1000.000 "
fill = "none" stroke = "black"/>
</g>
<g>
<polygon points = "681.967, 694.391 678.700, 713.213 683.369, 721.647 718.330, 746.468 726.737, 716.850 706.885, 670.647 695.878, 674.783 "
fill = "none" stroke = "black"/>
</g>
<g>
<polygon points = "492.675, 236.717 504.605, 235.642 531.113, 194.980 460.081, 151.439 458.053, 162.877 453.495, 215.481 "
fill = "none" stroke = "black"/>
</g>
<g>
<polygon points = "114.132, 576.259 88.553, 540.841 69.311, 540.851 62.684, 545.450 108.728, 616.913 115.345, 611.066 "
fill = "none" stroke = "black"/>
</g>
<g>
<polygon points = "502.425, 853.520 540.578, 831.185 520.187, 777.227 485.688, 794.138 "
fill = "none" stroke = "black"/>
</g>
<g>
<polygon points = "69.034, 45.694 61.885, 44.669 0.000, 122.284 0.000, 140.915 14.470, 132.992 63.420, 85.224 "
fill = "none" stroke = "black"/>
</g>
<g>
<polygon points = "306.683, 952.675 301.141, 928.592 275.158, 910.996 271.347, 909.583 235.643, 924.205 248.062, 958.630 301.715, 960.183 "
fill = "none" stroke = "black"/>
</g>
<g>
<polygon points = "569.358, 234.472 562.616, 239.649 572.355, 277.895 619.440, 298.055 634.759, 287.247 635.429, 286.525 616.000, 256.944 569.565, 234.438 "
fill = "none" stroke = "black"/>
</g>
<g>
<polygon points = "982.337, 833.975 970.915, 836.824 928.306, 867.226 991.960, 907.030 1000.000, 911.289 1000.000, 835.077 "
fill = "none" stroke = "black"/>
</g>
<g>
<polygon points = "159.595, 123.933 149.164, 134.338 134.008, 161.720 135.133, 192.848 147.929, 200.387 186.438, 185.162 190.284, 159.215 "
fill = "none" stroke = "black"/>
</g>
<g>
<polygon points = "694.330, 529.305 729.235, 563.835 736.561, 568.443 764.452, 532.360 762.268, 525.321 692.328, 513.865 "
fill = "none" stroke = "black"/>
</g>
<g>
<polygon points = "3.574, 255.633 29.830, 249.123 37.363, 241.971 48.383, 221.855 39.056, 212.607 0.000, 185.174 0.000, 255.607 "
fill = "none" stroke = "black"/>
</g>
<g>
<polygon points = "691.455, 409.320 681.672, 457.928 683.601, 459.934 714.049, 446.665 727.630, 397.618 723.604, 391.578 718.807, 389.724 696.616, 397.172 "
fill = "none" stroke = "black"/>
</g>
<g>
<polygon points = "860.615, 264.504 936.269, 258.564 954.772, 220.096 881.404, 224.160 864.844, 242.551 "
fill = "none" stroke = "black"/>
</g>
</svg>
